<?xml version="1.0" encoding="utf-8"?>
<!-- Generator: Adobe Illustrator 26.0.1, SVG Export Plug-In . SVG Version: 6.00 Build 0)  -->
<svg version="1.1" width="180px" height="180px" id="2" xmlns="http://www.w3.org/2000/svg" xmlns:xlink="http://www.w3.org/1999/xlink" x="0px" y="0px"
	 viewBox="0 0 128 128" style="enable-background:new 0 0 128 128;" xml:space="preserve">
<style type="text/css">
	.st0{fill:#FAD9D0;}
	.st1{fill:#595757;}
</style>
<g>
	<circle class="st0" cx="64" cy="64" r="60.3"/>
	<path class="st1" d="M64,128C28.7,128,0,99.3,0,64S28.7,0,64,0s64,28.7,64,64S99.3,128,64,128z M64,7.5C32.9,7.5,7.5,32.9,7.5,64
		s25.4,56.5,56.5,56.5s56.5-25.4,56.5-56.5S95.1,7.5,64,7.5z"/>
	<g>
		<g>
			<circle class="st1" cx="45.5" cy="50.3" r="3.7"/>
		</g>
		<g>
			<circle class="st1" cx="82.5" cy="50.3" r="3.7"/>
		</g>
	</g>
	<g>
		<path class="st1" d="M64,85.2c-6.3,0-12.6-2.3-17.4-7.1c-1.5-1.5-1.5-3.8,0-5.3c1.5-1.5,3.8-1.5,5.3,0c6.6,6.6,17.5,6.6,24.1,0
			c1.5-1.5,3.8-1.5,5.3,0c1.5,1.5,1.5,3.8,0,5.3C76.6,82.8,70.3,85.2,64,85.2z"/>
	</g>
</g>
</svg>
